# xmcd CD database file
#
# Track frame offsets:
#	150
#	14807
#	28454
#	42355
#	55780
#	69657
#	83197
#	97032
#	111188
#	124229
#	138750
#	152179
#	165280
#	179057
#	193380
#	208094
#	221629
#	234737
#
# Disc length: 3375 seconds
#
# Revision: 0
# Processed by: cddbd v1.4PL0 Copyright (c) Steve Scherf et al.
# Submitted via: CDex 1.50
#
DISCID=160d2d12
DTITLE=Josh White - Blues, spirituals and folk songs, 1932-1945, disc 1
DYEAR=1900
DGENRE=Blues
TTITLE0=Black and evil blues
TTITLE1=Little brother blues
TTITLE2=Crying blues
TTITLE3=Bed depression blues
TTITLE4=Good gal
TTITLE5=High brown cheater
TTITLE6=Jesus gonna make up my dying bed
TTITLE7=There's a man going around taking names
TTITLE8=I believe I'll make a change
TTITLE9=Badly mistreated man
TTITLE10=Red springs blues
TTITLE11=Jet black woman
TTITLE12=While the blood runs warm in your veins
TTITLE13=Trying to get home
TTITLE14=Got a key to the kingdom
TTITLE15=My soul is gonna live with god
TTITLE16=Prison bound
TTITLE17=Milk cow blues
EXTD=
EXTT0=
EXTT1=
EXTT2=
EXTT3=
EXTT4=
EXTT5=
EXTT6=
EXTT7=
EXTT8=
EXTT9=
EXTT10=
EXTT11=
EXTT12=
EXTT13=
EXTT14=
EXTT15=
EXTT16=
EXTT17=
PLAYORDER=
